M48
; DRILL file KiCad 10.0.1 date 2026-05-04T15:55:20
; FORMAT={-:-/ absolute / metric / decimal}
; #@! TF.CreationDate,2026-05-04T15:55:20+09:00
; #@! TF.GenerationSoftware,Kicad,Pcbnew,10.0.1
; #@! TF.FileFunction,Plated,1,2,PTH
FMAT,2
METRIC
; #@! TA.AperFunction,Plated,PTH,ViaDrill
T1C0.300
; #@! TA.AperFunction,Plated,PTH,ComponentDrill
T2C0.300
; #@! TA.AperFunction,Plated,PTH,ViaDrill
T3C0.400
; #@! TA.AperFunction,Plated,PTH,ViaDrill
T4C0.500
; #@! TA.AperFunction,Plated,PTH,ComponentDrill
T5C0.600
; #@! TA.AperFunction,Plated,PTH,ComponentDrill
T6C0.750
; #@! TA.AperFunction,Plated,PTH,ComponentDrill
T7C0.800
; #@! TA.AperFunction,Plated,PTH,ComponentDrill
T8C0.950
; #@! TA.AperFunction,Plated,PTH,ComponentDrill
T9C1.000
; #@! TA.AperFunction,Plated,PTH,ComponentDrill
T10C1.700
; #@! TA.AperFunction,Plated,PTH,ComponentDrill
T11C3.200
%
G90
G05
T1
X73.0Y-87.0
X76.0Y-84.0
X77.0Y-93.0
X79.0Y-81.0
X82.0Y-87.0
X82.0Y-90.0
X82.0Y-93.0
X87.0Y-87.0
X87.0Y-90.0
X87.0Y-93.0
X95.3Y-62.4
X95.4Y-58.6
X95.4Y-60.4
X97.5Y-58.6
X97.5Y-60.5
X97.5Y-62.4
X99.6Y-58.6
X99.6Y-60.5
X99.6Y-62.4
X101.7Y-103.5
X102.0Y-74.0
X103.8Y-79.2
X103.8Y-80.9
X104.0Y-87.0
X104.0Y-89.0
X105.0Y-71.0
X105.0Y-75.0
X105.0Y-102.9
X105.8Y-79.3
X105.8Y-80.9
X106.0Y-87.0
X106.0Y-89.0
X106.6Y-102.3
X107.0Y-69.0
X107.6Y-72.4
X107.6Y-92.4
X109.2Y-75.9
X109.2Y-101.5
X110.0Y-71.0
X110.0Y-74.0
X110.25Y-60.17
X110.25Y-61.44
X110.25Y-62.71
X110.25Y-63.98
X110.25Y-65.25
X112.0Y-74.0
X112.3Y-100.9
X114.9Y-100.3
X115.545Y-71.516
X115.825Y-69.8
X116.9Y-85.0
X117.095Y-70.0
X118.4Y-75.5
X120.6Y-71.0
X121.0Y-85.0
X121.85Y-66.8
X122.0Y-79.0
X122.0Y-81.0
X122.0Y-87.0
X122.0Y-89.0
X122.2Y-69.9
X122.824Y-72.5
X123.1Y-75.4
X123.3Y-102.9
X123.4Y-71.0
X124.2Y-75.9
X124.3Y-93.5
X124.8Y-71.0
X125.1Y-65.1
X125.3Y-53.5
X125.5Y-92.5
X126.6Y-79.8
X126.6Y-94.4
X126.6Y-103.5
X127.0Y-75.2
X128.3Y-75.7
X128.9Y-72.9
X129.1Y-79.8
X129.4Y-102.9
X129.5Y-73.5
X131.8Y-102.2
X132.73Y-94.4
X133.1Y-78.4
X133.1Y-79.4
X134.1Y-78.4
X134.1Y-79.5
X134.5Y-101.6
X135.27Y-93.9
X135.5Y-55.0
X135.5Y-56.5
X135.5Y-58.0
X135.5Y-59.5
X135.5Y-61.0
X135.5Y-62.5
X135.5Y-64.0
X136.7Y-101.0
X137.7Y-93.0
X138.0Y-63.5
X138.0Y-73.5
X139.3Y-100.4
X139.5Y-73.5
X140.0Y-63.5
X141.225Y-85.0
X141.5Y-88.6
X142.0Y-63.5
X142.0Y-65.0
X142.5Y-73.5
X143.5Y-81.6
X143.5Y-83.2
X143.5Y-88.4
X144.5Y-68.0
X144.5Y-69.5
X144.5Y-70.5
X144.5Y-71.5
X144.5Y-73.0
X145.4Y-81.6
X145.4Y-83.2
X145.4Y-88.4
X145.5Y-63.5
X145.5Y-65.0
X146.5Y-73.5
X146.9Y-85.7
X147.9Y-77.2
X148.3Y-88.5
X148.5Y-64.3
X148.6Y-65.3
X148.7Y-103.5
X148.9Y-76.465
X150.5Y-73.5
X150.8Y-64.4
X150.8Y-65.4
X150.8Y-66.2
X151.25Y-77.25
X152.0Y-73.5
X152.3Y-102.9
X152.55Y-76.55
X153.5Y-73.5
X154.5Y-55.5
X154.5Y-56.5
X154.5Y-57.5
X154.5Y-58.5
X154.5Y-59.5
X154.5Y-60.5
X154.5Y-61.5
X154.5Y-66.5
X154.5Y-67.5
X154.5Y-69.5
X154.5Y-70.5
X154.5Y-72.0
X154.7Y-54.3
X154.7Y-102.2
X155.0Y-73.5
X156.5Y-55.5
X156.5Y-56.5
X156.5Y-57.5
X156.5Y-58.5
X156.5Y-59.5
X156.5Y-60.5
X156.5Y-61.5
X156.5Y-66.5
X156.5Y-67.5
X156.5Y-69.5
X156.5Y-70.5
X156.5Y-72.0
X156.5Y-73.5
X157.3Y-85.0
X157.5Y-68.0
X158.4Y-101.6
X158.5Y-69.0
X159.5Y-70.0
X159.5Y-71.5
X159.5Y-73.0
X159.5Y-74.5
X159.5Y-76.0
X159.5Y-77.5
X159.5Y-79.0
X159.8Y-101.0
X161.0Y-51.0
X163.0Y-66.0
X163.0Y-68.0
X163.0Y-70.0
X163.0Y-72.0
X163.0Y-74.0
X163.0Y-76.0
X163.0Y-78.0
X163.0Y-80.0
X163.0Y-83.0
X164.0Y-51.0
X167.0Y-51.0
X167.0Y-54.0
X167.0Y-58.0
X167.0Y-61.0
X167.0Y-64.0
X167.0Y-68.0
X167.0Y-70.0
X167.0Y-72.0
X167.0Y-74.0
X167.0Y-76.0
X167.0Y-78.0
X167.0Y-80.0
X167.0Y-83.0
X167.0Y-86.0
X167.0Y-89.0
X167.0Y-92.0
T2
X116.1Y-58.3
X116.1Y-59.7
X116.8Y-57.6
X116.8Y-59.0
X116.8Y-60.4
X117.5Y-58.3
X117.5Y-59.7
X118.2Y-57.6
X118.2Y-59.0
X118.2Y-60.4
X118.9Y-58.3
X118.9Y-59.7
T3
X77.9Y-64.616
X77.9Y-69.416
X110.25Y-55.09
X110.25Y-56.36
X110.25Y-57.63
X110.25Y-58.9
X110.4Y-53.9
X111.9Y-70.0
X127.75Y-57.63
X127.75Y-58.9
X127.75Y-67.79
X128.6Y-53.82
X128.7Y-60.17
X135.7Y-65.9
X138.8Y-64.8
X139.0Y-54.8
X148.3Y-58.565
X148.4Y-54.2
X148.4Y-67.4
X149.9Y-54.2
X151.0Y-50.225
X151.0Y-51.8
X151.4Y-54.8
X152.0Y-56.0
X153.3Y-64.8
X157.4Y-50.225
X160.09Y-57.1
T4
X92.0Y-71.2
X92.225Y-52.475
T6
X92.0Y-81.0
X93.0Y-87.75
X94.0Y-81.0
X95.0Y-87.75
X96.0Y-81.0
X97.0Y-87.75
X98.0Y-81.0
X99.0Y-87.75
X100.0Y-81.0
X111.0Y-81.0
X112.0Y-88.0
X113.0Y-81.0
X114.0Y-88.0
X115.0Y-81.0
X116.0Y-88.0
X117.0Y-81.0
X118.0Y-88.0
X119.0Y-81.0
X131.0Y-81.0
X132.0Y-88.225
X133.0Y-81.0
X134.0Y-88.225
X135.0Y-81.0
X136.0Y-88.225
X137.0Y-81.0
X138.0Y-88.225
X139.0Y-81.0
X151.0Y-81.0
X152.0Y-88.0
X153.0Y-81.0
X154.0Y-88.0
X155.0Y-81.0
X156.0Y-88.0
X157.0Y-81.0
X158.0Y-88.0
X159.0Y-81.0
T7
X93.747Y-120.5
X97.247Y-120.5
X116.0Y-118.797
X116.0Y-122.297
X141.0Y-118.797
X141.0Y-122.297
X162.4Y-118.797
X162.4Y-122.297
T8
X100.0Y-136.0
X102.5Y-136.0
X105.0Y-136.0
X107.5Y-136.0
X116.0Y-136.0
X118.5Y-136.0
X121.0Y-136.0
X123.5Y-136.0
X132.0Y-136.0
X134.5Y-136.0
X137.0Y-136.0
X139.5Y-136.0
X148.0Y-136.0
X150.5Y-136.0
X153.0Y-136.0
X155.5Y-136.0
T9
X72.76Y-98.02
X72.76Y-110.72
X75.3Y-98.02
X75.3Y-110.72
X77.84Y-98.02
X77.84Y-110.72
X80.38Y-98.02
X80.38Y-110.72
X82.92Y-98.02
X82.92Y-110.72
X85.46Y-98.02
X85.46Y-110.72
X88.0Y-98.02
X88.0Y-110.72
X90.54Y-98.02
X90.54Y-110.72
X97.76Y-98.02
X97.76Y-110.72
X100.3Y-98.02
X100.3Y-110.72
X102.84Y-98.02
X102.84Y-110.72
X105.38Y-98.02
X105.38Y-110.72
X107.92Y-98.02
X107.92Y-110.72
X110.46Y-98.02
X110.46Y-110.72
X113.0Y-98.02
X113.0Y-110.72
X115.54Y-98.02
X115.54Y-110.72
X122.795Y-97.795
X122.795Y-110.495
X125.335Y-97.795
X125.335Y-110.495
X127.875Y-97.795
X127.875Y-110.495
X130.415Y-97.795
X130.415Y-110.495
X132.955Y-97.795
X132.955Y-110.495
X135.495Y-97.795
X135.495Y-110.495
X138.035Y-97.795
X138.035Y-110.495
X140.575Y-97.795
X140.575Y-110.495
X146.11Y-97.66
X146.11Y-110.36
X148.65Y-97.66
X148.65Y-110.36
X151.19Y-97.66
X151.19Y-110.36
X153.73Y-97.66
X153.73Y-110.36
X156.27Y-97.66
X156.27Y-110.36
X158.81Y-97.66
X158.81Y-110.36
X161.35Y-97.66
X161.35Y-110.36
X163.89Y-97.66
X163.89Y-110.36
T10
X77.55Y-122.242
X77.55Y-126.203
T11
X71.5Y-46.5
X71.5Y-140.5
X165.5Y-46.5
X165.5Y-140.5
T5
G00X71.737Y-62.696
M15
G01X70.938Y-62.696
M16
G05
G00X71.737Y-71.336
M15
G01X70.938Y-71.336
M16
G05
G00X76.067Y-62.696
M15
G01X74.968Y-62.696
M16
G05
G00X76.067Y-71.336
M15
G01X74.968Y-71.336
M16
G05
T9
G00X86.7Y-129.7
M15
G01X89.3Y-129.7
M16
G05
G00X86.9Y-136.0
M15
G01X89.1Y-136.0
M16
G05
G00X92.8Y-131.5
M15
G01X92.8Y-133.7
M16
G05
M30
