%TF.GenerationSoftware,KiCad,Pcbnew,10.0.1*%
%TF.CreationDate,2026-05-04T15:55:22+09:00*%
%TF.ProjectId,SteppingMotorDriver,53746570-7069-46e6-974d-6f746f724472,rev?*%
%TF.SameCoordinates,Original*%
%TF.FileFunction,Paste,Top*%
%TF.FilePolarity,Positive*%
%FSLAX46Y46*%
G04 Gerber Fmt 4.6, Leading zero omitted, Abs format (unit mm)*
G04 Created by KiCad (PCBNEW 10.0.1) date 2026-05-04 15:55:22*
%MOMM*%
%LPD*%
G01*
G04 APERTURE LIST*
G04 Aperture macros list*
%AMRoundRect*
0 Rectangle with rounded corners*
0 $1 Rounding radius*
0 $2 $3 $4 $5 $6 $7 $8 $9 X,Y pos of 4 corners*
0 Add a 4 corners polygon primitive as box body*
4,1,4,$2,$3,$4,$5,$6,$7,$8,$9,$2,$3,0*
0 Add four circle primitives for the rounded corners*
1,1,$1+$1,$2,$3*
1,1,$1+$1,$4,$5*
1,1,$1+$1,$6,$7*
1,1,$1+$1,$8,$9*
0 Add four rect primitives between the rounded corners*
20,1,$1+$1,$2,$3,$4,$5,0*
20,1,$1+$1,$4,$5,$6,$7,0*
20,1,$1+$1,$6,$7,$8,$9,0*
20,1,$1+$1,$8,$9,$2,$3,0*%
G04 Aperture macros list end*
%ADD10R,0.900000X0.900000*%
%ADD11R,1.500000X0.900000*%
%ADD12R,0.900000X1.500000*%
%ADD13RoundRect,0.140000X-0.140000X-0.170000X0.140000X-0.170000X0.140000X0.170000X-0.140000X0.170000X0*%
%ADD14RoundRect,0.140000X0.140000X0.170000X-0.140000X0.170000X-0.140000X-0.170000X0.140000X-0.170000X0*%
%ADD15RoundRect,0.135000X-0.135000X-0.185000X0.135000X-0.185000X0.135000X0.185000X-0.135000X0.185000X0*%
%ADD16RoundRect,0.162500X-0.825000X-0.162500X0.825000X-0.162500X0.825000X0.162500X-0.825000X0.162500X0*%
%ADD17RoundRect,0.147500X-0.172500X0.147500X-0.172500X-0.147500X0.172500X-0.147500X0.172500X0.147500X0*%
%ADD18RoundRect,0.262500X0.537500X0.262500X-0.537500X0.262500X-0.537500X-0.262500X0.537500X-0.262500X0*%
%ADD19RoundRect,0.225000X0.250000X-0.225000X0.250000X0.225000X-0.250000X0.225000X-0.250000X-0.225000X0*%
%ADD20RoundRect,0.225000X-0.250000X0.225000X-0.250000X-0.225000X0.250000X-0.225000X0.250000X0.225000X0*%
%ADD21RoundRect,0.135000X0.135000X0.185000X-0.135000X0.185000X-0.135000X-0.185000X0.135000X-0.185000X0*%
%ADD22R,0.510000X0.700000*%
%ADD23RoundRect,0.150000X-0.512500X-0.150000X0.512500X-0.150000X0.512500X0.150000X-0.512500X0.150000X0*%
%ADD24R,1.150000X0.600000*%
%ADD25R,1.150000X0.300000*%
G04 APERTURE END LIST*
D10*
%TO.C,U2*%
X116100000Y-57600000D03*
X116100000Y-59000000D03*
X116100000Y-60400000D03*
X117500000Y-57600000D03*
X117500000Y-59000000D03*
X117500000Y-60400000D03*
X118900000Y-57600000D03*
X118900000Y-59000000D03*
X118900000Y-60400000D03*
D11*
X110250000Y-51280000D03*
X110250000Y-52550000D03*
X110250000Y-53820000D03*
X110250000Y-55090000D03*
X110250000Y-56360000D03*
X110250000Y-57630000D03*
X110250000Y-58900000D03*
X110250000Y-60170000D03*
X110250000Y-61440000D03*
X110250000Y-62710000D03*
X110250000Y-63980000D03*
X110250000Y-65250000D03*
X110250000Y-66520000D03*
X110250000Y-67790000D03*
D12*
X112015000Y-69040000D03*
X113285000Y-69040000D03*
X114555000Y-69040000D03*
X115825000Y-69040000D03*
X117095000Y-69040000D03*
X118365000Y-69040000D03*
X119635000Y-69040000D03*
X120905000Y-69040000D03*
X122175000Y-69040000D03*
X123445000Y-69040000D03*
X124715000Y-69040000D03*
X125985000Y-69040000D03*
D11*
X127750000Y-67790000D03*
X127750000Y-66520000D03*
X127750000Y-65250000D03*
X127750000Y-63980000D03*
X127750000Y-62710000D03*
X127750000Y-61440000D03*
X127750000Y-60170000D03*
X127750000Y-58900000D03*
X127750000Y-57630000D03*
X127750000Y-56360000D03*
X127750000Y-55090000D03*
X127750000Y-53820000D03*
X127750000Y-52550000D03*
X127750000Y-51280000D03*
%TD*%
D13*
%TO.C,C19*%
X146820000Y-64800000D03*
X147780000Y-64800000D03*
%TD*%
D14*
%TO.C,C47*%
X161080000Y-58400000D03*
X160120000Y-58400000D03*
%TD*%
D15*
%TO.C,R1*%
X83190000Y-70000000D03*
X84210000Y-70000000D03*
%TD*%
D16*
%TO.C,U7*%
X142062500Y-66195000D03*
X142062500Y-67465000D03*
X142062500Y-68735000D03*
X142062500Y-70005000D03*
X147137500Y-70005000D03*
X147137500Y-68735000D03*
X147137500Y-67465000D03*
X147137500Y-66195000D03*
%TD*%
D15*
%TO.C,R5*%
X160080000Y-54400000D03*
X161100000Y-54400000D03*
%TD*%
%TO.C,R2*%
X83190000Y-63300000D03*
X84210000Y-63300000D03*
%TD*%
D17*
%TO.C,R8*%
X87100000Y-80700000D03*
X87100000Y-81670000D03*
%TD*%
%TO.C,R6*%
X86000000Y-80685000D03*
X86000000Y-81655000D03*
%TD*%
D16*
%TO.C,U6*%
X142062500Y-57295000D03*
X142062500Y-58565000D03*
X142062500Y-59835000D03*
X142062500Y-61105000D03*
X147137500Y-61105000D03*
X147137500Y-59835000D03*
X147137500Y-58565000D03*
X147137500Y-57295000D03*
%TD*%
D14*
%TO.C,C6*%
X161060000Y-53200000D03*
X160100000Y-53200000D03*
%TD*%
D18*
%TO.C,SW1*%
X151000000Y-50225000D03*
X151000000Y-45775000D03*
%TD*%
D15*
%TO.C,R16*%
X137090000Y-69400000D03*
X138110000Y-69400000D03*
%TD*%
D13*
%TO.C,C15*%
X151920000Y-62000000D03*
X152880000Y-62000000D03*
%TD*%
D19*
%TO.C,C7*%
X81000000Y-53225000D03*
X81000000Y-51675000D03*
%TD*%
D20*
%TO.C,C5*%
X103600000Y-52625000D03*
X103600000Y-54175000D03*
%TD*%
D21*
%TO.C,R15*%
X138310000Y-64800000D03*
X137290000Y-64800000D03*
%TD*%
D22*
%TO.C,U1*%
X84050000Y-58260000D03*
X85000000Y-58260000D03*
X85950000Y-58260000D03*
X85950000Y-55940000D03*
X84050000Y-55940000D03*
%TD*%
D20*
%TO.C,C4*%
X101600000Y-52625000D03*
X101600000Y-54175000D03*
%TD*%
D21*
%TO.C,R13*%
X138510000Y-54800000D03*
X137490000Y-54800000D03*
%TD*%
%TO.C,R20*%
X152910000Y-69400000D03*
X151890000Y-69400000D03*
%TD*%
D23*
%TO.C,U3*%
X83862500Y-51650000D03*
X83862500Y-52600000D03*
X83862500Y-53550000D03*
X86137500Y-53550000D03*
X86137500Y-51650000D03*
%TD*%
D21*
%TO.C,R19*%
X152910000Y-64800000D03*
X151890000Y-64800000D03*
%TD*%
D15*
%TO.C,R3*%
X83190000Y-66400000D03*
X84210000Y-66400000D03*
%TD*%
%TO.C,R14*%
X137380000Y-59800000D03*
X138400000Y-59800000D03*
%TD*%
D14*
%TO.C,C10*%
X138280000Y-62200000D03*
X137320000Y-62200000D03*
%TD*%
D15*
%TO.C,R7*%
X160090000Y-57200000D03*
X161110000Y-57200000D03*
%TD*%
D19*
%TO.C,C1*%
X81000000Y-58375000D03*
X81000000Y-56825000D03*
%TD*%
D20*
%TO.C,C3*%
X91200000Y-51825000D03*
X91200000Y-53375000D03*
%TD*%
D14*
%TO.C,C13*%
X138080000Y-72000000D03*
X137120000Y-72000000D03*
%TD*%
D20*
%TO.C,C2*%
X88800000Y-51825000D03*
X88800000Y-53375000D03*
%TD*%
D13*
%TO.C,C17*%
X151920000Y-72000000D03*
X152880000Y-72000000D03*
%TD*%
D21*
%TO.C,R18*%
X152820000Y-59800000D03*
X151800000Y-59800000D03*
%TD*%
D13*
%TO.C,C12*%
X147020000Y-55600000D03*
X147980000Y-55600000D03*
%TD*%
D15*
%TO.C,R17*%
X151890000Y-54800000D03*
X152910000Y-54800000D03*
%TD*%
%TO.C,R4*%
X83190000Y-67800000D03*
X84210000Y-67800000D03*
%TD*%
D18*
%TO.C,SW2*%
X157400000Y-50225000D03*
X157400000Y-45775000D03*
%TD*%
D13*
%TO.C,C11*%
X137420000Y-57200000D03*
X138380000Y-57200000D03*
%TD*%
%TO.C,C14*%
X137120000Y-67000000D03*
X138080000Y-67000000D03*
%TD*%
D14*
%TO.C,C18*%
X152880000Y-67000000D03*
X151920000Y-67000000D03*
%TD*%
%TO.C,C16*%
X152880000Y-57200000D03*
X151920000Y-57200000D03*
%TD*%
D24*
%TO.C,J1*%
X76082500Y-63815700D03*
X76082500Y-64615700D03*
D25*
X76082500Y-65765700D03*
X76082500Y-66765700D03*
X76082500Y-67265700D03*
X76082500Y-68265700D03*
D24*
X76082500Y-70215700D03*
X76082500Y-69415700D03*
D25*
X76082500Y-68765700D03*
X76082500Y-67765700D03*
X76082500Y-66265700D03*
X76082500Y-65265700D03*
%TD*%
M02*
