M48
; DRILL file KiCad 10.0.4 date 2026-07-31T00:13:19
; FORMAT={-:-/ absolute / metric / decimal}
; #@! TF.CreationDate,2026-07-31T00:13:19+09:00
; #@! TF.GenerationSoftware,Kicad,Pcbnew,10.0.4
; #@! TF.FileFunction,Plated,1,2,PTH
FMAT,2
METRIC
; #@! TA.AperFunction,Plated,PTH,ViaDrill
T1C0.300
; #@! TA.AperFunction,Plated,PTH,ComponentDrill
T2C0.300
; #@! TA.AperFunction,Plated,PTH,ViaDrill
T3C0.400
; #@! TA.AperFunction,Plated,PTH,ViaDrill
T4C0.500
; #@! TA.AperFunction,Plated,PTH,ComponentDrill
T5C0.600
; #@! TA.AperFunction,Plated,PTH,ComponentDrill
T6C0.750
; #@! TA.AperFunction,Plated,PTH,ComponentDrill
T7C0.800
; #@! TA.AperFunction,Plated,PTH,ComponentDrill
T8C0.950
; #@! TA.AperFunction,Plated,PTH,ComponentDrill
T9C1.000
; #@! TA.AperFunction,Plated,PTH,ComponentDrill
T10C1.700
; #@! TA.AperFunction,Plated,PTH,ComponentDrill
T11C3.200
%
G90
G05
T1
X72.5Y-99.0
X72.5Y-103.5
X72.5Y-107.0
X72.5Y-110.5
X72.5Y-113.5
X77.5Y-99.0
X77.5Y-103.5
X77.5Y-107.0
X77.5Y-110.5
X77.5Y-113.5
X78.3Y-118.2
X78.3Y-118.8
X79.1Y-118.2
X79.1Y-118.8
X79.8Y-68.8
X80.2Y-65.2
X81.0Y-47.0
X81.0Y-49.0
X81.0Y-68.8
X81.8Y-65.2
X82.2Y-68.8
X83.037Y-79.18
X83.037Y-82.18
X83.047Y-87.6
X83.047Y-90.2
X83.047Y-93.0
X83.2Y-65.2
X83.4Y-68.8
X84.0Y-115.7
X84.0Y-116.8
X84.0Y-117.8
X84.0Y-118.8
X84.6Y-65.2
X84.8Y-68.8
X85.0Y-47.0
X85.0Y-49.0
X85.2Y-115.7
X85.2Y-116.7
X85.2Y-117.8
X85.2Y-118.8
X85.4Y-72.0
X85.5Y-105.0
X85.8Y-65.2
X86.0Y-81.0
X86.0Y-83.0
X86.0Y-85.0
X86.4Y-68.8
X86.6Y-71.5
X86.9Y-118.7
X87.0Y-88.0
X87.0Y-90.0
X87.0Y-92.5
X87.0Y-95.5
X87.6Y-65.2
X87.8Y-55.4
X87.8Y-56.4
X88.0Y-69.0
X88.0Y-107.5
X88.2Y-117.7
X88.2Y-118.7
X88.3Y-115.7
X88.3Y-116.7
X88.4Y-55.8
X88.5Y-61.5
X89.0Y-47.0
X89.0Y-49.0
X89.288Y-74.055
X89.288Y-81.675
X89.288Y-82.945
X89.4Y-59.6
X89.4Y-65.2
X91.0Y-69.0
X91.5Y-65.2
X92.0Y-78.0
X92.0Y-81.5
X92.0Y-83.5
X92.0Y-85.0
X92.0Y-88.0
X92.0Y-90.5
X92.0Y-93.0
X92.0Y-95.0
X93.0Y-47.0
X93.0Y-49.0
X93.5Y-65.2
X93.5Y-69.0
X93.5Y-84.5
X93.5Y-114.5
X94.0Y-88.0
X94.0Y-90.5
X94.0Y-93.0
X94.0Y-95.0
X94.712Y-82.945
X95.0Y-101.6
X96.0Y-110.0
X96.4Y-65.4
X96.5Y-72.5
X96.5Y-84.5
X96.5Y-87.5
X96.5Y-89.0
X96.5Y-91.0
X96.5Y-93.0
X96.5Y-95.0
X97.0Y-78.0
X97.0Y-79.5
X97.0Y-81.0
X97.0Y-114.5
X97.5Y-69.0
X97.6Y-65.4
X98.5Y-110.0
X99.0Y-65.4
X99.25Y-100.5
X99.5Y-69.0
X99.5Y-87.0
X100.152Y-74.055
X100.152Y-81.675
X100.2Y-65.4
X100.288Y-97.445
X100.45Y-100.25
X100.5Y-84.0
X100.5Y-87.0
X100.5Y-92.365
X101.0Y-110.0
X101.0Y-114.5
X101.4Y-65.4
X101.5Y-53.75
X101.5Y-55.25
X101.5Y-56.75
X101.5Y-58.5
X101.5Y-60.0
X101.5Y-62.5
X101.5Y-81.5
X101.5Y-84.0
X101.5Y-87.0
X102.5Y-65.0
X102.5Y-77.5
X102.5Y-80.0
X102.5Y-82.0
X102.5Y-84.0
X102.7Y-92.15
X102.75Y-93.15
X103.0Y-87.0
X103.5Y-55.25
X103.5Y-56.75
X103.5Y-58.5
X103.5Y-60.0
X103.5Y-62.5
X103.5Y-80.0
X103.75Y-111.0
X103.95Y-92.15
X103.95Y-93.15
X104.0Y-65.0
X104.0Y-75.5
X104.0Y-77.5
X104.5Y-114.5
X105.35Y-100.0
X105.5Y-54.0
X105.5Y-55.25
X105.5Y-56.75
X105.5Y-58.5
X105.5Y-60.0
X105.5Y-62.5
X105.576Y-82.945
X105.8Y-103.6
X106.5Y-111.0
X107.5Y-54.0
X107.5Y-55.25
X107.5Y-56.75
X107.5Y-58.5
X107.5Y-60.0
X108.0Y-72.0
X108.0Y-73.5
X108.0Y-75.0
X108.0Y-76.5
X108.0Y-77.5
X108.0Y-114.5
X108.5Y-81.5
X108.6Y-111.1
X109.5Y-72.0
X109.5Y-73.5
X109.5Y-75.0
X109.5Y-76.5
X109.5Y-77.5
X109.5Y-81.5
X109.5Y-83.0
X110.25Y-53.82
X110.25Y-65.25
X111.5Y-114.5
X112.0Y-52.0
X112.0Y-53.0
X112.0Y-81.5
X112.0Y-83.0
X112.5Y-72.0
X112.5Y-73.5
X112.5Y-75.0
X112.5Y-76.5
X112.6Y-57.3
X113.0Y-52.0
X113.0Y-54.0
X113.2Y-106.4
X113.919Y-112.014
X114.0Y-52.0
X114.0Y-53.0
X114.5Y-114.5
X114.6Y-111.7
X115.0Y-52.0
X115.0Y-54.0
X115.45Y-108.85
X116.0Y-52.0
X116.0Y-53.0
X116.7Y-79.1
X117.0Y-52.0
X117.0Y-54.0
X117.2Y-81.4
X117.5Y-87.4
X117.5Y-104.4
X117.75Y-93.45
X118.0Y-52.0
X118.0Y-53.0
X118.5Y-114.5
X118.8Y-104.25
X119.5Y-82.5
X120.188Y-80.188
X120.4Y-81.8
X120.5Y-82.5
X121.0Y-54.0
X121.0Y-55.0
X121.0Y-80.3
X121.0Y-103.0
X121.5Y-114.5
X122.0Y-54.0
X122.0Y-55.0
X122.3Y-67.4
X122.5Y-75.5
X123.0Y-52.0
X123.0Y-53.0
X123.0Y-54.0
X123.0Y-55.0
X123.4Y-73.6
X123.5Y-71.0
X123.5Y-72.5
X123.9Y-81.575
X124.0Y-52.0
X124.0Y-53.0
X124.0Y-54.0
X124.0Y-55.0
X124.0Y-101.0
X124.0Y-103.0
X124.5Y-114.5
X124.715Y-69.04
X125.0Y-52.0
X125.0Y-53.0
X125.0Y-54.0
X125.0Y-55.0
X125.0Y-71.0
X126.0Y-52.0
X126.0Y-53.0
X126.0Y-54.0
X126.0Y-55.0
X126.0Y-84.9
X126.0Y-101.0
X126.0Y-103.0
X126.0Y-105.0
X126.079Y-81.521
X126.3Y-111.7
X127.2Y-78.1
X127.3Y-76.3
X127.579Y-76.996
X127.75Y-67.8
X128.0Y-114.5
X128.2Y-80.9
X128.3Y-74.25
X128.3Y-78.1
X128.375Y-73.025
X129.7Y-111.5
X129.9Y-98.4
X130.0Y-100.0
X130.0Y-102.0
X130.6Y-83.8
X131.3Y-65.2
X131.4Y-68.8
X131.5Y-114.5
X131.9Y-111.0
X132.0Y-98.0
X132.0Y-100.0
X132.0Y-102.0
X132.3Y-85.7
X133.0Y-69.0
X133.0Y-71.0
X133.0Y-73.0
X133.8Y-67.6
X133.9Y-83.4
X134.0Y-98.0
X134.0Y-100.0
X134.0Y-102.0
X134.7Y-63.2
X134.7Y-65.15
X135.0Y-74.0
X136.0Y-114.5
X136.5Y-65.5
X137.0Y-74.0
X138.0Y-65.5
X138.0Y-74.0
X138.6Y-82.9
X139.0Y-74.0
X139.4Y-59.5
X139.5Y-65.5
X139.8Y-71.0
X139.8Y-71.8
X140.0Y-74.0
X140.0Y-114.5
X140.3Y-82.9
X140.5Y-65.5
X141.0Y-74.0
X141.6Y-85.9
X141.862Y-64.505
X142.0Y-65.5
X142.0Y-74.0
X143.0Y-74.0
X143.4Y-82.8
X143.5Y-55.5
X143.5Y-56.5
X143.5Y-57.5
X143.5Y-59.5
X143.5Y-60.5
X143.5Y-114.5
X144.0Y-74.0
X144.3Y-70.4
X144.3Y-71.3
X145.0Y-52.0
X145.0Y-74.0
X145.0Y-97.0
X145.0Y-99.0
X145.2Y-62.6
X146.0Y-74.0
X146.0Y-82.925
X146.5Y-114.5
X147.0Y-74.0
X147.0Y-97.0
X147.0Y-99.0
X147.0Y-101.0
X148.0Y-74.0
X148.25Y-82.925
X148.5Y-52.5
X148.6Y-62.5
X148.6Y-63.7
X149.0Y-60.0
X149.0Y-66.0
X149.0Y-74.0
X149.0Y-97.0
X149.0Y-99.0
X149.0Y-101.0
X150.0Y-52.0
X150.0Y-59.0
X150.0Y-60.0
X150.0Y-62.5
X150.0Y-63.7
X150.0Y-74.0
X150.0Y-114.5
X150.5Y-66.0
X150.8Y-71.9
X151.0Y-74.0
X151.5Y-82.925
X152.0Y-52.0
X152.0Y-66.0
X152.0Y-74.0
X152.6Y-47.94
X153.0Y-59.0
X153.0Y-74.0
X153.5Y-66.0
X153.5Y-114.5
X153.75Y-82.925
X153.8Y-47.5
X154.0Y-52.0
X154.0Y-71.0
X154.0Y-74.0
X155.0Y-61.0
X155.0Y-71.0
X155.0Y-74.0
X156.0Y-62.0
X156.0Y-71.0
X156.6Y-47.5
X156.7Y-74.6
X157.0Y-63.0
X157.0Y-71.0
X157.0Y-114.5
X157.3Y-75.6
X157.5Y-80.9
X157.8Y-47.92
X158.0Y-64.0
X158.0Y-71.0
X159.0Y-65.0
X160.0Y-66.0
X160.5Y-80.8
X160.5Y-114.5
X163.5Y-114.5
X165.0Y-75.5
X165.0Y-76.5
X165.0Y-78.0
X165.0Y-79.5
X165.0Y-80.5
X165.0Y-83.5
X165.0Y-85.0
X165.0Y-87.0
X165.0Y-89.0
X165.0Y-90.0
X165.0Y-93.5
X165.0Y-96.0
X165.0Y-98.5
X165.0Y-100.5
X165.0Y-102.0
X165.0Y-104.5
X165.0Y-107.0
X165.2Y-110.7
T2
X116.1Y-58.3
X116.1Y-59.7
X116.8Y-57.6
X116.8Y-59.0
X116.8Y-60.4
X117.5Y-58.3
X117.5Y-59.7
X118.2Y-57.6
X118.2Y-59.0
X118.2Y-60.4
X118.9Y-58.3
X118.9Y-59.7
T3
X80.2Y-122.0
X82.1Y-114.2
X82.737Y-116.25
X84.3Y-114.2
X84.4Y-120.0
X84.4Y-121.0
X84.4Y-122.0
X84.4Y-123.0
X85.4Y-120.0
X85.4Y-121.0
X85.4Y-122.0
X85.4Y-123.0
X86.4Y-120.0
X86.4Y-121.0
X86.4Y-122.0
X86.4Y-123.0
X87.2Y-114.3
X87.4Y-120.0
X87.4Y-121.0
X87.4Y-122.0
X87.4Y-123.0
X88.4Y-120.0
X88.4Y-121.0
X88.4Y-122.0
X88.4Y-123.0
X89.4Y-76.8
X89.65Y-79.15
X89.95Y-98.1
X93.8Y-98.1
X94.712Y-80.405
X100.152Y-76.595
X102.9Y-109.7
X105.5Y-109.2
X107.5Y-87.5
X107.5Y-91.5
X107.5Y-93.0
X108.0Y-109.35
X109.0Y-87.5
X109.0Y-91.5
X109.0Y-93.0
X112.5Y-91.5
X112.5Y-92.5
X113.4Y-94.9
X118.5Y-111.5
X120.0Y-111.5
X121.5Y-111.5
X121.9Y-66.4
X122.0Y-62.9
X123.7Y-110.05
X125.2Y-62.85
X125.2Y-66.25
X127.65Y-110.1
X128.5Y-105.0
X130.5Y-105.0
X130.65Y-55.05
X134.5Y-104.5
X135.0Y-111.0
X137.0Y-104.5
X137.0Y-111.0
X137.3Y-66.8
X138.31Y-53.4
X138.5Y-108.0
X139.05Y-104.65
X139.38Y-110.88
X141.0Y-111.7
X141.649Y-61.751
X144.5Y-111.5
X145.84Y-109.5
X146.5Y-111.5
X149.0Y-111.5
X151.29Y-53.4
X151.5Y-111.5
X153.0Y-111.5
X154.3Y-64.9
X154.5Y-111.5
X154.55Y-53.7
X154.55Y-59.85
X154.6Y-56.35
X156.5Y-111.5
X157.0Y-60.35
X157.05Y-53.75
X157.05Y-56.55
X158.0Y-111.5
X159.5Y-104.0
X159.5Y-111.5
X161.2Y-69.4
X161.5Y-104.0
X161.575Y-55.0
X161.8Y-60.75
X163.0Y-71.5
T4
X87.5Y-101.0
X87.5Y-103.0
X90.5Y-101.0
X90.5Y-103.0
X92.5Y-101.0
X92.5Y-103.0
X95.0Y-72.4
X98.25Y-52.0
X98.25Y-52.0
X105.8Y-72.3
X105.9Y-87.0
X110.25Y-57.63
X110.25Y-58.9
X110.25Y-60.17
X110.25Y-61.44
X110.25Y-62.71
X110.25Y-63.98
X112.015Y-69.04
X114.6Y-68.2
X115.825Y-69.04
X117.095Y-69.04
X118.365Y-69.04
X119.635Y-69.04
X120.905Y-69.04
X122.175Y-69.04
X125.985Y-69.04
X127.75Y-57.63
X127.75Y-58.9
X127.75Y-60.17
X127.75Y-61.44
X127.75Y-62.71
X127.75Y-63.98
X127.75Y-65.25
X127.75Y-66.52
X128.4Y-84.685
X134.1Y-53.8
X135.8Y-53.7
X135.9Y-55.3
X142.075Y-83.075
X142.5Y-58.8
X146.6Y-52.6
X146.6Y-59.5
X146.6Y-66.0
X147.8Y-55.165
X160.4Y-82.8
T6
X73.0Y-55.0
X73.0Y-57.0
X119.533Y-89.0
X120.533Y-98.6
X121.533Y-89.0
X122.533Y-98.6
X123.533Y-89.0
X124.533Y-98.6
X125.533Y-89.0
X126.533Y-98.6
X127.533Y-89.0
X130.0Y-78.0
X132.0Y-78.0
X134.0Y-78.0
X135.667Y-89.0
X136.0Y-78.0
X136.667Y-98.6
X137.667Y-89.0
X138.667Y-98.6
X139.667Y-89.0
X140.667Y-98.6
X141.667Y-89.0
X142.0Y-78.0
X142.667Y-98.6
X143.667Y-89.0
X144.0Y-78.0
X146.0Y-78.0
X148.0Y-78.0
X151.0Y-89.0
X152.0Y-98.6
X153.0Y-89.0
X154.0Y-78.0
X154.0Y-98.6
X155.0Y-89.0
X156.0Y-78.0
X156.0Y-98.6
X157.0Y-89.0
X158.0Y-78.0
X158.0Y-98.6
X159.0Y-89.0
X160.0Y-78.0
T7
X90.6Y-62.0
X91.6Y-55.245
X91.6Y-57.245
X92.6Y-62.0
X110.2Y-125.847
X110.2Y-129.347
X135.4Y-125.847
X135.4Y-129.347
X160.2Y-125.847
X160.2Y-129.347
T8
X97.5Y-135.65
X100.0Y-135.65
X102.5Y-135.65
X105.0Y-135.65
X122.5Y-135.65
X125.0Y-135.65
X127.5Y-135.65
X130.0Y-135.65
X147.5Y-135.65
X150.0Y-135.65
X152.5Y-135.65
X155.0Y-135.65
T9
X92.11Y-107.65
X92.11Y-120.35
X94.65Y-107.65
X94.65Y-120.35
X97.19Y-107.65
X97.19Y-120.35
X99.73Y-107.65
X99.73Y-120.35
X102.27Y-107.65
X102.27Y-120.35
X104.81Y-107.65
X104.81Y-120.35
X107.35Y-107.65
X107.35Y-120.35
X109.89Y-107.65
X109.89Y-120.35
X117.11Y-107.65
X117.11Y-120.35
X119.65Y-107.65
X119.65Y-120.35
X122.19Y-107.65
X122.19Y-120.35
X124.73Y-107.65
X124.73Y-120.35
X127.27Y-107.65
X127.27Y-120.35
X129.81Y-107.65
X129.81Y-120.35
X132.35Y-107.65
X132.35Y-120.35
X134.89Y-107.65
X134.89Y-120.35
X142.61Y-107.65
X142.61Y-120.35
X145.15Y-107.65
X145.15Y-120.35
X147.69Y-107.65
X147.69Y-120.35
X150.23Y-107.65
X150.23Y-120.35
X152.77Y-107.65
X152.77Y-120.35
X155.31Y-107.65
X155.31Y-120.35
X157.85Y-107.65
X157.85Y-120.35
X160.39Y-107.65
X160.39Y-120.35
T10
X74.35Y-125.0
X74.35Y-128.96
T11
X71.5Y-46.5
X71.5Y-140.5
X165.5Y-46.5
X165.5Y-140.5
T5
G00X71.737Y-62.696
M15
G01X70.938Y-62.696
M16
G05
G00X71.737Y-71.336
M15
G01X70.938Y-71.336
M16
G05
G00X76.067Y-62.696
M15
G01X74.968Y-62.696
M16
G05
G00X76.067Y-71.336
M15
G01X74.968Y-71.336
M16
G05
T9
G00X84.7Y-129.5
M15
G01X87.3Y-129.5
M16
G05
G00X84.9Y-135.8
M15
G01X87.1Y-135.8
M16
G05
G00X90.8Y-131.3
M15
G01X90.8Y-133.5
M16
G05
M30
