%TF.GenerationSoftware,KiCad,Pcbnew,10.0.4*%
%TF.CreationDate,2026-07-31T00:13:21+09:00*%
%TF.ProjectId,SteppingMotorDriver,53746570-7069-46e6-974d-6f746f724472,1.0.0*%
%TF.SameCoordinates,Original*%
%TF.FileFunction,Soldermask,Bot*%
%TF.FilePolarity,Negative*%
%FSLAX46Y46*%
G04 Gerber Fmt 4.6, Leading zero omitted, Abs format (unit mm)*
G04 Created by KiCad (PCBNEW 10.0.4) date 2026-07-31 00:13:21*
%MOMM*%
%LPD*%
G01*
G04 APERTURE LIST*
G04 Aperture macros list*
%AMRoundRect*
0 Rectangle with rounded corners*
0 $1 Rounding radius*
0 $2 $3 $4 $5 $6 $7 $8 $9 X,Y pos of 4 corners*
0 Add a 4 corners polygon primitive as box body*
4,1,4,$2,$3,$4,$5,$6,$7,$8,$9,$2,$3,0*
0 Add four circle primitives for the rounded corners*
1,1,$1+$1,$2,$3*
1,1,$1+$1,$4,$5*
1,1,$1+$1,$6,$7*
1,1,$1+$1,$8,$9*
0 Add four rect primitives between the rounded corners*
20,1,$1+$1,$2,$3,$4,$5,0*
20,1,$1+$1,$4,$5,$6,$7,0*
20,1,$1+$1,$6,$7,$8,$9,0*
20,1,$1+$1,$8,$9,$2,$3,0*%
G04 Aperture macros list end*
%ADD10R,0.610000X2.000000*%
%ADD11R,2.680000X3.600000*%
%ADD12C,5.600000*%
%ADD13O,1.200000X1.750000*%
%ADD14RoundRect,0.250000X-0.350000X-0.625000X0.350000X-0.625000X0.350000X0.625000X-0.350000X0.625000X0*%
%ADD15RoundRect,0.250000X-0.550000X0.550000X-0.550000X-0.550000X0.550000X-0.550000X0.550000X0.550000X0*%
%ADD16C,1.600000*%
%ADD17R,4.600000X2.000000*%
%ADD18O,4.200000X2.000000*%
%ADD19O,2.000000X4.200000*%
%ADD20RoundRect,0.250000X-0.600000X-0.725000X0.600000X-0.725000X0.600000X0.725000X-0.600000X0.725000X0*%
%ADD21O,1.700000X1.950000*%
%ADD22C,0.750000*%
%ADD23R,1.700000X1.700000*%
%ADD24C,1.700000*%
%ADD25RoundRect,0.250000X-0.625000X0.350000X-0.625000X-0.350000X0.625000X-0.350000X0.625000X0.350000X0*%
%ADD26O,1.750000X1.200000*%
%ADD27RoundRect,0.250001X-1.099999X1.099999X-1.099999X-1.099999X1.099999X-1.099999X1.099999X1.099999X0*%
%ADD28C,2.700000*%
%ADD29RoundRect,0.250000X0.550000X0.550000X-0.550000X0.550000X-0.550000X-0.550000X0.550000X-0.550000X0*%
%ADD30C,0.650000*%
%ADD31O,2.004000X1.204000*%
%ADD32O,2.304000X1.204000*%
G04 APERTURE END LIST*
D10*
%TO.C,J15*%
X129215000Y-79825000D03*
X128215000Y-79825000D03*
X127215000Y-79825000D03*
X126215000Y-79825000D03*
X125215000Y-79825000D03*
X124215000Y-79825000D03*
D11*
X132205000Y-82625000D03*
X121225000Y-82625000D03*
%TD*%
D12*
%TO.C,H2*%
X71500000Y-46500000D03*
%TD*%
D13*
%TO.C,J5*%
X136000000Y-78000000D03*
X134000000Y-78000000D03*
X132000000Y-78000000D03*
D14*
X130000000Y-78000000D03*
%TD*%
%TO.C,J11*%
X135666700Y-89000000D03*
D13*
X137666700Y-89000000D03*
X139666700Y-89000000D03*
X141666700Y-89000000D03*
X143666700Y-89000000D03*
%TD*%
D15*
%TO.C,C29*%
X91600000Y-55244888D03*
D16*
X91600000Y-57244888D03*
%TD*%
D15*
%TO.C,C30*%
X110200000Y-125847300D03*
D16*
X110200000Y-129347300D03*
%TD*%
D15*
%TO.C,C32*%
X160200000Y-125847300D03*
D16*
X160200000Y-129347300D03*
%TD*%
D17*
%TO.C,J2*%
X86000000Y-129500000D03*
D18*
X86000000Y-135800000D03*
D19*
X90800000Y-132400000D03*
%TD*%
D12*
%TO.C,H3*%
X165500000Y-46500000D03*
%TD*%
D20*
%TO.C,J31*%
X122500000Y-135650000D03*
D21*
X125000000Y-135650000D03*
X127500000Y-135650000D03*
X130000000Y-135650000D03*
%TD*%
D14*
%TO.C,J10*%
X136666700Y-98600000D03*
D13*
X138666700Y-98600000D03*
X140666700Y-98600000D03*
X142666700Y-98600000D03*
%TD*%
D22*
%TO.C,SW1*%
X163800000Y-55900000D03*
X163800000Y-54100000D03*
%TD*%
D14*
%TO.C,J9*%
X119533400Y-89000000D03*
D13*
X121533400Y-89000000D03*
X123533400Y-89000000D03*
X125533400Y-89000000D03*
X127533400Y-89000000D03*
%TD*%
D23*
%TO.C,A3*%
X160390000Y-107650000D03*
D24*
X157850000Y-107650000D03*
X155310000Y-107650000D03*
X152770000Y-107650000D03*
X150230000Y-107650000D03*
X147690000Y-107650000D03*
X145150000Y-107650000D03*
X142610000Y-107650000D03*
X142610000Y-120350000D03*
X145150000Y-120350000D03*
X147690000Y-120350000D03*
X150230000Y-120350000D03*
X152770000Y-120350000D03*
X155310000Y-120350000D03*
X157850000Y-120350000D03*
X160390000Y-120350000D03*
%TD*%
D23*
%TO.C,A2*%
X134890000Y-107650000D03*
D24*
X132350000Y-107650000D03*
X129810000Y-107650000D03*
X127270000Y-107650000D03*
X124730000Y-107650000D03*
X122190000Y-107650000D03*
X119650000Y-107650000D03*
X117110000Y-107650000D03*
X117110000Y-120350000D03*
X119650000Y-120350000D03*
X122190000Y-120350000D03*
X124730000Y-120350000D03*
X127270000Y-120350000D03*
X129810000Y-120350000D03*
X132350000Y-120350000D03*
X134890000Y-120350000D03*
%TD*%
D12*
%TO.C,H1*%
X71500000Y-140500000D03*
%TD*%
D20*
%TO.C,J30*%
X97500000Y-135650000D03*
D21*
X100000000Y-135650000D03*
X102500000Y-135650000D03*
X105000000Y-135650000D03*
%TD*%
D20*
%TO.C,J32*%
X147500000Y-135650000D03*
D21*
X150000000Y-135650000D03*
X152500000Y-135650000D03*
X155000000Y-135650000D03*
%TD*%
D23*
%TO.C,A1*%
X109890000Y-107650000D03*
D24*
X107350000Y-107650000D03*
X104810000Y-107650000D03*
X102270000Y-107650000D03*
X99730000Y-107650000D03*
X97190000Y-107650000D03*
X94650000Y-107650000D03*
X92110000Y-107650000D03*
X92110000Y-120350000D03*
X94650000Y-120350000D03*
X97190000Y-120350000D03*
X99730000Y-120350000D03*
X102270000Y-120350000D03*
X104810000Y-120350000D03*
X107350000Y-120350000D03*
X109890000Y-120350000D03*
%TD*%
D25*
%TO.C,J8*%
X73000000Y-55000000D03*
D26*
X73000000Y-57000000D03*
%TD*%
D12*
%TO.C,H4*%
X165500000Y-140500000D03*
%TD*%
D14*
%TO.C,J6*%
X142000000Y-78000000D03*
D13*
X144000000Y-78000000D03*
X146000000Y-78000000D03*
X148000000Y-78000000D03*
%TD*%
D14*
%TO.C,J13*%
X151000000Y-89000000D03*
D13*
X153000000Y-89000000D03*
X155000000Y-89000000D03*
X157000000Y-89000000D03*
X159000000Y-89000000D03*
%TD*%
D14*
%TO.C,J12*%
X152000000Y-98600000D03*
D13*
X154000000Y-98600000D03*
X156000000Y-98600000D03*
X158000000Y-98600000D03*
%TD*%
D27*
%TO.C,J3*%
X74350000Y-125000000D03*
D28*
X74350000Y-128960000D03*
%TD*%
D14*
%TO.C,J4*%
X120533400Y-98600000D03*
D13*
X122533400Y-98600000D03*
X124533400Y-98600000D03*
X126533400Y-98600000D03*
%TD*%
D22*
%TO.C,SW2*%
X164025000Y-61300000D03*
X164025000Y-59500000D03*
%TD*%
D29*
%TO.C,C28*%
X92600000Y-62000000D03*
D16*
X90600000Y-62000000D03*
%TD*%
D30*
%TO.C,J1*%
X75017500Y-64125700D03*
X75017500Y-69905700D03*
D31*
X71337500Y-62695700D03*
X71337500Y-71335700D03*
D32*
X75517500Y-62695700D03*
X75517500Y-71335700D03*
%TD*%
D15*
%TO.C,Cr1*%
X135400000Y-125847300D03*
D16*
X135400000Y-129347300D03*
%TD*%
D14*
%TO.C,J7*%
X154000000Y-78000000D03*
D13*
X156000000Y-78000000D03*
X158000000Y-78000000D03*
X160000000Y-78000000D03*
%TD*%
M02*
