%TF.GenerationSoftware,KiCad,Pcbnew,10.0.4*%
%TF.CreationDate,2026-07-31T00:13:21+09:00*%
%TF.ProjectId,SteppingMotorDriver,53746570-7069-46e6-974d-6f746f724472,1.0.0*%
%TF.SameCoordinates,Original*%
%TF.FileFunction,Paste,Top*%
%TF.FilePolarity,Positive*%
%FSLAX46Y46*%
G04 Gerber Fmt 4.6, Leading zero omitted, Abs format (unit mm)*
G04 Created by KiCad (PCBNEW 10.0.4) date 2026-07-31 00:13:21*
%MOMM*%
%LPD*%
G01*
G04 APERTURE LIST*
G04 Aperture macros list*
%AMRoundRect*
0 Rectangle with rounded corners*
0 $1 Rounding radius*
0 $2 $3 $4 $5 $6 $7 $8 $9 X,Y pos of 4 corners*
0 Add a 4 corners polygon primitive as box body*
4,1,4,$2,$3,$4,$5,$6,$7,$8,$9,$2,$3,0*
0 Add four circle primitives for the rounded corners*
1,1,$1+$1,$2,$3*
1,1,$1+$1,$4,$5*
1,1,$1+$1,$6,$7*
1,1,$1+$1,$8,$9*
0 Add four rect primitives between the rounded corners*
20,1,$1+$1,$2,$3,$4,$5,0*
20,1,$1+$1,$4,$5,$6,$7,0*
20,1,$1+$1,$6,$7,$8,$9,0*
20,1,$1+$1,$8,$9,$2,$3,0*%
G04 Aperture macros list end*
%ADD10R,0.900000X0.900000*%
%ADD11R,1.500000X0.900000*%
%ADD12R,0.900000X1.500000*%
%ADD13RoundRect,0.200000X0.200000X0.275000X-0.200000X0.275000X-0.200000X-0.275000X0.200000X-0.275000X0*%
%ADD14RoundRect,0.140000X-0.140000X-0.170000X0.140000X-0.170000X0.140000X0.170000X-0.140000X0.170000X0*%
%ADD15RoundRect,0.162500X-0.825000X-0.162500X0.825000X-0.162500X0.825000X0.162500X-0.825000X0.162500X0*%
%ADD16RoundRect,0.225000X-0.225000X-0.250000X0.225000X-0.250000X0.225000X0.250000X-0.225000X0.250000X0*%
%ADD17RoundRect,0.250000X0.375000X0.625000X-0.375000X0.625000X-0.375000X-0.625000X0.375000X-0.625000X0*%
%ADD18RoundRect,0.140000X-0.170000X0.140000X-0.170000X-0.140000X0.170000X-0.140000X0.170000X0.140000X0*%
%ADD19RoundRect,0.135000X-0.135000X-0.185000X0.135000X-0.185000X0.135000X0.185000X-0.135000X0.185000X0*%
%ADD20RoundRect,0.135000X0.185000X-0.135000X0.185000X0.135000X-0.185000X0.135000X-0.185000X-0.135000X0*%
%ADD21RoundRect,0.218750X-0.218750X-0.256250X0.218750X-0.256250X0.218750X0.256250X-0.218750X0.256250X0*%
%ADD22RoundRect,0.200000X-0.275000X0.200000X-0.275000X-0.200000X0.275000X-0.200000X0.275000X0.200000X0*%
%ADD23RoundRect,0.262500X0.262500X-0.537500X0.262500X0.537500X-0.262500X0.537500X-0.262500X-0.537500X0*%
%ADD24R,1.525000X0.650000*%
%ADD25RoundRect,0.150000X0.150000X-0.587500X0.150000X0.587500X-0.150000X0.587500X-0.150000X-0.587500X0*%
%ADD26RoundRect,0.150000X-0.512500X-0.150000X0.512500X-0.150000X0.512500X0.150000X-0.512500X0.150000X0*%
%ADD27RoundRect,0.225000X0.225000X0.250000X-0.225000X0.250000X-0.225000X-0.250000X0.225000X-0.250000X0*%
%ADD28RoundRect,0.225000X-0.250000X0.225000X-0.250000X-0.225000X0.250000X-0.225000X0.250000X0.225000X0*%
%ADD29RoundRect,0.375000X-0.375000X0.625000X-0.375000X-0.625000X0.375000X-0.625000X0.375000X0.625000X0*%
%ADD30RoundRect,0.500000X-1.400000X0.500000X-1.400000X-0.500000X1.400000X-0.500000X1.400000X0.500000X0*%
%ADD31R,0.510000X0.700000*%
%ADD32RoundRect,0.250000X0.250000X0.250000X-0.250000X0.250000X-0.250000X-0.250000X0.250000X-0.250000X0*%
%ADD33RoundRect,0.100000X-0.637500X-0.100000X0.637500X-0.100000X0.637500X0.100000X-0.637500X0.100000X0*%
%ADD34RoundRect,0.135000X0.135000X0.185000X-0.135000X0.185000X-0.135000X-0.185000X0.135000X-0.185000X0*%
%ADD35RoundRect,0.140000X0.140000X0.170000X-0.140000X0.170000X-0.140000X-0.170000X0.140000X-0.170000X0*%
%ADD36RoundRect,0.225000X0.250000X-0.225000X0.250000X0.225000X-0.250000X0.225000X-0.250000X-0.225000X0*%
%ADD37R,1.150000X0.600000*%
%ADD38R,1.150000X0.300000*%
%ADD39RoundRect,0.200000X-0.200000X-0.275000X0.200000X-0.275000X0.200000X0.275000X-0.200000X0.275000X0*%
G04 APERTURE END LIST*
D10*
%TO.C,U2*%
X116100000Y-57600000D03*
X116100000Y-59000000D03*
X116100000Y-60400000D03*
X117500000Y-57600000D03*
X117500000Y-59000000D03*
X117500000Y-60400000D03*
X118900000Y-57600000D03*
X118900000Y-59000000D03*
X118900000Y-60400000D03*
D11*
X110250000Y-51280000D03*
X110250000Y-52550000D03*
X110250000Y-53820000D03*
X110250000Y-55090000D03*
X110250000Y-56360000D03*
X110250000Y-57630000D03*
X110250000Y-58900000D03*
X110250000Y-60170000D03*
X110250000Y-61440000D03*
X110250000Y-62710000D03*
X110250000Y-63980000D03*
X110250000Y-65250000D03*
X110250000Y-66520000D03*
X110250000Y-67790000D03*
D12*
X112015000Y-69040000D03*
X113285000Y-69040000D03*
X114555000Y-69040000D03*
X115825000Y-69040000D03*
X117095000Y-69040000D03*
X118365000Y-69040000D03*
X119635000Y-69040000D03*
X120905000Y-69040000D03*
X122175000Y-69040000D03*
X123445000Y-69040000D03*
X124715000Y-69040000D03*
X125985000Y-69040000D03*
D11*
X127750000Y-67790000D03*
X127750000Y-66520000D03*
X127750000Y-65250000D03*
X127750000Y-63980000D03*
X127750000Y-62710000D03*
X127750000Y-61440000D03*
X127750000Y-60170000D03*
X127750000Y-58900000D03*
X127750000Y-57630000D03*
X127750000Y-56360000D03*
X127750000Y-55090000D03*
X127750000Y-53820000D03*
X127750000Y-52550000D03*
X127750000Y-51280000D03*
%TD*%
D13*
%TO.C,R10*%
X83037500Y-79180000D03*
X81387500Y-79180000D03*
%TD*%
%TO.C,R9*%
X83037500Y-76180000D03*
X81387500Y-76180000D03*
%TD*%
D14*
%TO.C,C19*%
X147120000Y-59500000D03*
X148080000Y-59500000D03*
%TD*%
D15*
%TO.C,U8*%
X141862500Y-67495000D03*
X141862500Y-68765000D03*
X141862500Y-70035000D03*
X141862500Y-71305000D03*
X146937500Y-71305000D03*
X146937500Y-70035000D03*
X146937500Y-68765000D03*
X146937500Y-67495000D03*
%TD*%
D16*
%TO.C,C9*%
X104325000Y-72400000D03*
X105875000Y-72400000D03*
%TD*%
D13*
%TO.C,R34*%
X83075000Y-96000000D03*
X81425000Y-96000000D03*
%TD*%
D17*
%TO.C,R31*%
X83000000Y-122000000D03*
X80200000Y-122000000D03*
%TD*%
D18*
%TO.C,C47*%
X157800000Y-47920000D03*
X157800000Y-48880000D03*
%TD*%
D16*
%TO.C,C26*%
X86325000Y-55900000D03*
X87875000Y-55900000D03*
%TD*%
D19*
%TO.C,R1*%
X83190000Y-70000000D03*
X84210000Y-70000000D03*
%TD*%
D15*
%TO.C,U7*%
X141862500Y-60695000D03*
X141862500Y-61965000D03*
X141862500Y-63235000D03*
X141862500Y-64505000D03*
X146937500Y-64505000D03*
X146937500Y-63235000D03*
X146937500Y-61965000D03*
X146937500Y-60695000D03*
%TD*%
D20*
%TO.C,R5*%
X153800000Y-48920000D03*
X153800000Y-47900000D03*
%TD*%
D19*
%TO.C,R2*%
X83190000Y-63300000D03*
X84210000Y-63300000D03*
%TD*%
%TO.C,R25*%
X151290000Y-66800000D03*
X152310000Y-66800000D03*
%TD*%
D13*
%TO.C,R8*%
X133725000Y-62200000D03*
X132075000Y-62200000D03*
%TD*%
D21*
%TO.C,D4*%
X77425000Y-85000000D03*
X79000000Y-85000000D03*
%TD*%
D20*
%TO.C,R30*%
X87200000Y-117220000D03*
X87200000Y-116200000D03*
%TD*%
D22*
%TO.C,R43*%
X156200000Y-82925000D03*
X156200000Y-84575000D03*
%TD*%
D13*
%TO.C,R11*%
X83037500Y-82180000D03*
X81387500Y-82180000D03*
%TD*%
D19*
%TO.C,R26*%
X137290000Y-66800000D03*
X138310000Y-66800000D03*
%TD*%
D13*
%TO.C,R6*%
X133725000Y-64200000D03*
X132075000Y-64200000D03*
%TD*%
D15*
%TO.C,U6*%
X141862500Y-53895000D03*
X141862500Y-55165000D03*
X141862500Y-56435000D03*
X141862500Y-57705000D03*
X146937500Y-57705000D03*
X146937500Y-56435000D03*
X146937500Y-55165000D03*
X146937500Y-53895000D03*
%TD*%
D21*
%TO.C,D5*%
X77425000Y-87590000D03*
X79000000Y-87590000D03*
%TD*%
D20*
%TO.C,R29*%
X86100000Y-117220000D03*
X86100000Y-116200000D03*
%TD*%
D16*
%TO.C,C27*%
X86200000Y-59500000D03*
X87750000Y-59500000D03*
%TD*%
D18*
%TO.C,C6*%
X152600000Y-47940000D03*
X152600000Y-48900000D03*
%TD*%
D23*
%TO.C,SW1*%
X161575000Y-55000000D03*
X166025000Y-55000000D03*
%TD*%
D24*
%TO.C,IC2*%
X100152000Y-74055000D03*
X100152000Y-75325000D03*
X100152000Y-76595000D03*
X100152000Y-77865000D03*
X100152000Y-79135000D03*
X100152000Y-80405000D03*
X100152000Y-81675000D03*
X100152000Y-82945000D03*
X105576000Y-82945000D03*
X105576000Y-81675000D03*
X105576000Y-80405000D03*
X105576000Y-79135000D03*
X105576000Y-77865000D03*
X105576000Y-76595000D03*
X105576000Y-75325000D03*
X105576000Y-74055000D03*
%TD*%
D25*
%TO.C,Q2*%
X80450000Y-53937500D03*
X82350000Y-53937500D03*
X81400000Y-52062500D03*
%TD*%
D21*
%TO.C,D1*%
X77425000Y-76180000D03*
X79000000Y-76180000D03*
%TD*%
D14*
%TO.C,C24*%
X137320000Y-68600000D03*
X138280000Y-68600000D03*
%TD*%
D19*
%TO.C,R16*%
X137290000Y-63200000D03*
X138310000Y-63200000D03*
%TD*%
D26*
%TO.C,U5*%
X80462500Y-116250000D03*
X80462500Y-117200000D03*
X80462500Y-118150000D03*
X82737500Y-118150000D03*
X82737500Y-116250000D03*
%TD*%
D14*
%TO.C,C15*%
X151320000Y-57800000D03*
X152280000Y-57800000D03*
%TD*%
D16*
%TO.C,C20*%
X104425000Y-86900000D03*
X105975000Y-86900000D03*
%TD*%
D24*
%TO.C,IC1*%
X89288000Y-74055000D03*
X89288000Y-75325000D03*
X89288000Y-76595000D03*
X89288000Y-77865000D03*
X89288000Y-79135000D03*
X89288000Y-80405000D03*
X89288000Y-81675000D03*
X89288000Y-82945000D03*
X94712000Y-82945000D03*
X94712000Y-81675000D03*
X94712000Y-80405000D03*
X94712000Y-79135000D03*
X94712000Y-77865000D03*
X94712000Y-76595000D03*
X94712000Y-75325000D03*
X94712000Y-74055000D03*
%TD*%
D27*
%TO.C,C7*%
X81675000Y-57800000D03*
X80125000Y-57800000D03*
%TD*%
D28*
%TO.C,C5*%
X103600000Y-52625000D03*
X103600000Y-54175000D03*
%TD*%
D24*
%TO.C,IC3*%
X100288000Y-88555000D03*
X100288000Y-89825000D03*
X100288000Y-91095000D03*
X100288000Y-92365000D03*
X100288000Y-93635000D03*
X100288000Y-94905000D03*
X100288000Y-96175000D03*
X100288000Y-97445000D03*
X105712000Y-97445000D03*
X105712000Y-96175000D03*
X105712000Y-94905000D03*
X105712000Y-93635000D03*
X105712000Y-92365000D03*
X105712000Y-91095000D03*
X105712000Y-89825000D03*
X105712000Y-88555000D03*
%TD*%
D19*
%TO.C,R15*%
X137290000Y-60200000D03*
X138310000Y-60200000D03*
%TD*%
D13*
%TO.C,R22*%
X83047500Y-90200000D03*
X81397500Y-90200000D03*
%TD*%
D22*
%TO.C,R39*%
X146000000Y-82925000D03*
X146000000Y-84575000D03*
%TD*%
D29*
%TO.C,U9*%
X100500000Y-57450000D03*
X98200000Y-57450000D03*
D30*
X98200000Y-63750000D03*
D29*
X95900000Y-57450000D03*
%TD*%
D14*
%TO.C,C25*%
X147002500Y-66335000D03*
X147962500Y-66335000D03*
%TD*%
D13*
%TO.C,R35*%
X133725000Y-66200000D03*
X132075000Y-66200000D03*
%TD*%
%TO.C,R21*%
X83047500Y-87600000D03*
X81397500Y-87600000D03*
%TD*%
%TO.C,R24*%
X83047500Y-93000000D03*
X81397500Y-93000000D03*
%TD*%
D31*
%TO.C,U1*%
X81800000Y-61620000D03*
X82750000Y-61620000D03*
X83700000Y-61620000D03*
X83700000Y-59300000D03*
X81800000Y-59300000D03*
%TD*%
D21*
%TO.C,D2*%
X77425000Y-79180000D03*
X79000000Y-79180000D03*
%TD*%
%TO.C,D8*%
X77425000Y-92960000D03*
X79000000Y-92960000D03*
%TD*%
D28*
%TO.C,C4*%
X101600000Y-52625000D03*
X101600000Y-54175000D03*
%TD*%
D32*
%TO.C,D7*%
X86250000Y-57700000D03*
X83750000Y-57700000D03*
%TD*%
D16*
%TO.C,Ce1*%
X124625000Y-73000000D03*
X126175000Y-73000000D03*
%TD*%
D33*
%TO.C,U3*%
X119137500Y-74425000D03*
X119137500Y-75075000D03*
X119137500Y-75725000D03*
X119137500Y-76375000D03*
X119137500Y-77025000D03*
X119137500Y-77675000D03*
X119137500Y-78325000D03*
X119137500Y-78975000D03*
X119137500Y-79625000D03*
X119137500Y-80275000D03*
X119137500Y-80925000D03*
X119137500Y-81575000D03*
X124862500Y-81575000D03*
X124862500Y-80925000D03*
X124862500Y-80275000D03*
X124862500Y-79625000D03*
X124862500Y-78975000D03*
X124862500Y-78325000D03*
X124862500Y-77675000D03*
X124862500Y-77025000D03*
X124862500Y-76375000D03*
X124862500Y-75725000D03*
X124862500Y-75075000D03*
X124862500Y-74425000D03*
%TD*%
D34*
%TO.C,R13*%
X138310000Y-53400000D03*
X137290000Y-53400000D03*
%TD*%
%TO.C,R20*%
X152310000Y-63200000D03*
X151290000Y-63200000D03*
%TD*%
%TO.C,R32*%
X80710000Y-119800000D03*
X79690000Y-119800000D03*
%TD*%
%TO.C,R19*%
X152310000Y-60200000D03*
X151290000Y-60200000D03*
%TD*%
D19*
%TO.C,R3*%
X83190000Y-66400000D03*
X84210000Y-66400000D03*
%TD*%
D35*
%TO.C,C23*%
X152280000Y-68600000D03*
X151320000Y-68600000D03*
%TD*%
D19*
%TO.C,R14*%
X137290000Y-56400000D03*
X138310000Y-56400000D03*
%TD*%
D20*
%TO.C,R33*%
X78600000Y-117310000D03*
X78600000Y-116290000D03*
%TD*%
D35*
%TO.C,C21*%
X152280000Y-71800000D03*
X151320000Y-71800000D03*
%TD*%
D14*
%TO.C,C22*%
X137320000Y-71800000D03*
X138280000Y-71800000D03*
%TD*%
D35*
%TO.C,C10*%
X138280000Y-58000000D03*
X137320000Y-58000000D03*
%TD*%
D20*
%TO.C,R7*%
X156600000Y-48910000D03*
X156600000Y-47890000D03*
%TD*%
D13*
%TO.C,R12*%
X83047500Y-84960000D03*
X81397500Y-84960000D03*
%TD*%
D36*
%TO.C,C1*%
X80100000Y-61575000D03*
X80100000Y-60025000D03*
%TD*%
%TO.C,C3*%
X90000000Y-52275000D03*
X90000000Y-50725000D03*
%TD*%
D22*
%TO.C,R38*%
X148250000Y-82925000D03*
X148250000Y-84575000D03*
%TD*%
%TO.C,R40*%
X153750000Y-82925000D03*
X153750000Y-84575000D03*
%TD*%
D16*
%TO.C,C8*%
X93425000Y-72400000D03*
X94975000Y-72400000D03*
%TD*%
D35*
%TO.C,C13*%
X138280000Y-64600000D03*
X137320000Y-64600000D03*
%TD*%
D22*
%TO.C,R41*%
X151300000Y-82925000D03*
X151300000Y-84575000D03*
%TD*%
D36*
%TO.C,C2*%
X88300000Y-52275000D03*
X88300000Y-50725000D03*
%TD*%
D21*
%TO.C,D9*%
X77462500Y-96000000D03*
X79037500Y-96000000D03*
%TD*%
D14*
%TO.C,C17*%
X151320000Y-64600000D03*
X152280000Y-64600000D03*
%TD*%
D34*
%TO.C,R18*%
X152220000Y-56400000D03*
X151200000Y-56400000D03*
%TD*%
%TO.C,R27*%
X152310000Y-70200000D03*
X151290000Y-70200000D03*
%TD*%
D21*
%TO.C,D6*%
X77425000Y-90180000D03*
X79000000Y-90180000D03*
%TD*%
D14*
%TO.C,C12*%
X147120000Y-52600000D03*
X148080000Y-52600000D03*
%TD*%
D19*
%TO.C,R17*%
X151290000Y-53400000D03*
X152310000Y-53400000D03*
%TD*%
%TO.C,R4*%
X83190000Y-67800000D03*
X84210000Y-67800000D03*
%TD*%
D23*
%TO.C,SW2*%
X161800000Y-60400000D03*
X166250000Y-60400000D03*
%TD*%
D19*
%TO.C,R28*%
X137290000Y-70200000D03*
X138310000Y-70200000D03*
%TD*%
D14*
%TO.C,C11*%
X137320000Y-54800000D03*
X138280000Y-54800000D03*
%TD*%
%TO.C,C14*%
X137320000Y-61600000D03*
X138280000Y-61600000D03*
%TD*%
D35*
%TO.C,C18*%
X152280000Y-61600000D03*
X151320000Y-61600000D03*
%TD*%
D22*
%TO.C,R42*%
X158600000Y-82925000D03*
X158600000Y-84575000D03*
%TD*%
D35*
%TO.C,C16*%
X152280000Y-54800000D03*
X151320000Y-54800000D03*
%TD*%
D37*
%TO.C,J1*%
X76082500Y-63815700D03*
X76082500Y-64615700D03*
D38*
X76082500Y-65765700D03*
X76082500Y-66765700D03*
X76082500Y-67265700D03*
X76082500Y-68265700D03*
D37*
X76082500Y-70215700D03*
X76082500Y-69415700D03*
D38*
X76082500Y-68765700D03*
X76082500Y-67765700D03*
X76082500Y-66265700D03*
X76082500Y-65265700D03*
%TD*%
D39*
%TO.C,R23*%
X80175000Y-56100000D03*
X81825000Y-56100000D03*
%TD*%
D21*
%TO.C,D3*%
X77425000Y-82180000D03*
X79000000Y-82180000D03*
%TD*%
M02*
