%TF.GenerationSoftware,KiCad,Pcbnew,10.0.1*%
%TF.CreationDate,2026-06-13T15:25:30+09:00*%
%TF.ProjectId,SteppingMotorDriver,53746570-7069-46e6-974d-6f746f724472,1.0.0*%
%TF.SameCoordinates,Original*%
%TF.FileFunction,Legend,Bot*%
%TF.FilePolarity,Positive*%
%FSLAX46Y46*%
G04 Gerber Fmt 4.6, Leading zero omitted, Abs format (unit mm)*
G04 Created by KiCad (PCBNEW 10.0.1) date 2026-06-13 15:25:30*
%MOMM*%
%LPD*%
G01*
G04 APERTURE LIST*
%ADD10C,0.100000*%
G04 APERTURE END LIST*
D10*
X96656265Y-138413295D02*
X97132455Y-138413295D01*
X96561027Y-138127580D02*
X96894360Y-139127580D01*
X96894360Y-139127580D02*
X97227693Y-138127580D01*
X98084836Y-138127580D02*
X97513408Y-138127580D01*
X97799122Y-138127580D02*
X97799122Y-139127580D01*
X97799122Y-139127580D02*
X97703884Y-138984723D01*
X97703884Y-138984723D02*
X97608646Y-138889485D01*
X97608646Y-138889485D02*
X97513408Y-138841866D01*
X99227694Y-138413295D02*
X99703884Y-138413295D01*
X99132456Y-138127580D02*
X99465789Y-139127580D01*
X99465789Y-139127580D02*
X99799122Y-138127580D01*
X100084837Y-139032342D02*
X100132456Y-139079961D01*
X100132456Y-139079961D02*
X100227694Y-139127580D01*
X100227694Y-139127580D02*
X100465789Y-139127580D01*
X100465789Y-139127580D02*
X100561027Y-139079961D01*
X100561027Y-139079961D02*
X100608646Y-139032342D01*
X100608646Y-139032342D02*
X100656265Y-138937104D01*
X100656265Y-138937104D02*
X100656265Y-138841866D01*
X100656265Y-138841866D02*
X100608646Y-138699009D01*
X100608646Y-138699009D02*
X100037218Y-138127580D01*
X100037218Y-138127580D02*
X100656265Y-138127580D01*
X102180075Y-138651390D02*
X102322932Y-138603771D01*
X102322932Y-138603771D02*
X102370551Y-138556152D01*
X102370551Y-138556152D02*
X102418170Y-138460914D01*
X102418170Y-138460914D02*
X102418170Y-138318057D01*
X102418170Y-138318057D02*
X102370551Y-138222819D01*
X102370551Y-138222819D02*
X102322932Y-138175200D01*
X102322932Y-138175200D02*
X102227694Y-138127580D01*
X102227694Y-138127580D02*
X101846742Y-138127580D01*
X101846742Y-138127580D02*
X101846742Y-139127580D01*
X101846742Y-139127580D02*
X102180075Y-139127580D01*
X102180075Y-139127580D02*
X102275313Y-139079961D01*
X102275313Y-139079961D02*
X102322932Y-139032342D01*
X102322932Y-139032342D02*
X102370551Y-138937104D01*
X102370551Y-138937104D02*
X102370551Y-138841866D01*
X102370551Y-138841866D02*
X102322932Y-138746628D01*
X102322932Y-138746628D02*
X102275313Y-138699009D01*
X102275313Y-138699009D02*
X102180075Y-138651390D01*
X102180075Y-138651390D02*
X101846742Y-138651390D01*
X103370551Y-138127580D02*
X102799123Y-138127580D01*
X103084837Y-138127580D02*
X103084837Y-139127580D01*
X103084837Y-139127580D02*
X102989599Y-138984723D01*
X102989599Y-138984723D02*
X102894361Y-138889485D01*
X102894361Y-138889485D02*
X102799123Y-138841866D01*
X104894361Y-138651390D02*
X105037218Y-138603771D01*
X105037218Y-138603771D02*
X105084837Y-138556152D01*
X105084837Y-138556152D02*
X105132456Y-138460914D01*
X105132456Y-138460914D02*
X105132456Y-138318057D01*
X105132456Y-138318057D02*
X105084837Y-138222819D01*
X105084837Y-138222819D02*
X105037218Y-138175200D01*
X105037218Y-138175200D02*
X104941980Y-138127580D01*
X104941980Y-138127580D02*
X104561028Y-138127580D01*
X104561028Y-138127580D02*
X104561028Y-139127580D01*
X104561028Y-139127580D02*
X104894361Y-139127580D01*
X104894361Y-139127580D02*
X104989599Y-139079961D01*
X104989599Y-139079961D02*
X105037218Y-139032342D01*
X105037218Y-139032342D02*
X105084837Y-138937104D01*
X105084837Y-138937104D02*
X105084837Y-138841866D01*
X105084837Y-138841866D02*
X105037218Y-138746628D01*
X105037218Y-138746628D02*
X104989599Y-138699009D01*
X104989599Y-138699009D02*
X104894361Y-138651390D01*
X104894361Y-138651390D02*
X104561028Y-138651390D01*
X105513409Y-139032342D02*
X105561028Y-139079961D01*
X105561028Y-139079961D02*
X105656266Y-139127580D01*
X105656266Y-139127580D02*
X105894361Y-139127580D01*
X105894361Y-139127580D02*
X105989599Y-139079961D01*
X105989599Y-139079961D02*
X106037218Y-139032342D01*
X106037218Y-139032342D02*
X106084837Y-138937104D01*
X106084837Y-138937104D02*
X106084837Y-138841866D01*
X106084837Y-138841866D02*
X106037218Y-138699009D01*
X106037218Y-138699009D02*
X105465790Y-138127580D01*
X105465790Y-138127580D02*
X106084837Y-138127580D01*
X122056265Y-138413295D02*
X122532455Y-138413295D01*
X121961027Y-138127580D02*
X122294360Y-139127580D01*
X122294360Y-139127580D02*
X122627693Y-138127580D01*
X123484836Y-138127580D02*
X122913408Y-138127580D01*
X123199122Y-138127580D02*
X123199122Y-139127580D01*
X123199122Y-139127580D02*
X123103884Y-138984723D01*
X123103884Y-138984723D02*
X123008646Y-138889485D01*
X123008646Y-138889485D02*
X122913408Y-138841866D01*
X124627694Y-138413295D02*
X125103884Y-138413295D01*
X124532456Y-138127580D02*
X124865789Y-139127580D01*
X124865789Y-139127580D02*
X125199122Y-138127580D01*
X125484837Y-139032342D02*
X125532456Y-139079961D01*
X125532456Y-139079961D02*
X125627694Y-139127580D01*
X125627694Y-139127580D02*
X125865789Y-139127580D01*
X125865789Y-139127580D02*
X125961027Y-139079961D01*
X125961027Y-139079961D02*
X126008646Y-139032342D01*
X126008646Y-139032342D02*
X126056265Y-138937104D01*
X126056265Y-138937104D02*
X126056265Y-138841866D01*
X126056265Y-138841866D02*
X126008646Y-138699009D01*
X126008646Y-138699009D02*
X125437218Y-138127580D01*
X125437218Y-138127580D02*
X126056265Y-138127580D01*
X127580075Y-138651390D02*
X127722932Y-138603771D01*
X127722932Y-138603771D02*
X127770551Y-138556152D01*
X127770551Y-138556152D02*
X127818170Y-138460914D01*
X127818170Y-138460914D02*
X127818170Y-138318057D01*
X127818170Y-138318057D02*
X127770551Y-138222819D01*
X127770551Y-138222819D02*
X127722932Y-138175200D01*
X127722932Y-138175200D02*
X127627694Y-138127580D01*
X127627694Y-138127580D02*
X127246742Y-138127580D01*
X127246742Y-138127580D02*
X127246742Y-139127580D01*
X127246742Y-139127580D02*
X127580075Y-139127580D01*
X127580075Y-139127580D02*
X127675313Y-139079961D01*
X127675313Y-139079961D02*
X127722932Y-139032342D01*
X127722932Y-139032342D02*
X127770551Y-138937104D01*
X127770551Y-138937104D02*
X127770551Y-138841866D01*
X127770551Y-138841866D02*
X127722932Y-138746628D01*
X127722932Y-138746628D02*
X127675313Y-138699009D01*
X127675313Y-138699009D02*
X127580075Y-138651390D01*
X127580075Y-138651390D02*
X127246742Y-138651390D01*
X128770551Y-138127580D02*
X128199123Y-138127580D01*
X128484837Y-138127580D02*
X128484837Y-139127580D01*
X128484837Y-139127580D02*
X128389599Y-138984723D01*
X128389599Y-138984723D02*
X128294361Y-138889485D01*
X128294361Y-138889485D02*
X128199123Y-138841866D01*
X130294361Y-138651390D02*
X130437218Y-138603771D01*
X130437218Y-138603771D02*
X130484837Y-138556152D01*
X130484837Y-138556152D02*
X130532456Y-138460914D01*
X130532456Y-138460914D02*
X130532456Y-138318057D01*
X130532456Y-138318057D02*
X130484837Y-138222819D01*
X130484837Y-138222819D02*
X130437218Y-138175200D01*
X130437218Y-138175200D02*
X130341980Y-138127580D01*
X130341980Y-138127580D02*
X129961028Y-138127580D01*
X129961028Y-138127580D02*
X129961028Y-139127580D01*
X129961028Y-139127580D02*
X130294361Y-139127580D01*
X130294361Y-139127580D02*
X130389599Y-139079961D01*
X130389599Y-139079961D02*
X130437218Y-139032342D01*
X130437218Y-139032342D02*
X130484837Y-138937104D01*
X130484837Y-138937104D02*
X130484837Y-138841866D01*
X130484837Y-138841866D02*
X130437218Y-138746628D01*
X130437218Y-138746628D02*
X130389599Y-138699009D01*
X130389599Y-138699009D02*
X130294361Y-138651390D01*
X130294361Y-138651390D02*
X129961028Y-138651390D01*
X130913409Y-139032342D02*
X130961028Y-139079961D01*
X130961028Y-139079961D02*
X131056266Y-139127580D01*
X131056266Y-139127580D02*
X131294361Y-139127580D01*
X131294361Y-139127580D02*
X131389599Y-139079961D01*
X131389599Y-139079961D02*
X131437218Y-139032342D01*
X131437218Y-139032342D02*
X131484837Y-138937104D01*
X131484837Y-138937104D02*
X131484837Y-138841866D01*
X131484837Y-138841866D02*
X131437218Y-138699009D01*
X131437218Y-138699009D02*
X130865790Y-138127580D01*
X130865790Y-138127580D02*
X131484837Y-138127580D01*
X146756265Y-138413295D02*
X147232455Y-138413295D01*
X146661027Y-138127580D02*
X146994360Y-139127580D01*
X146994360Y-139127580D02*
X147327693Y-138127580D01*
X148184836Y-138127580D02*
X147613408Y-138127580D01*
X147899122Y-138127580D02*
X147899122Y-139127580D01*
X147899122Y-139127580D02*
X147803884Y-138984723D01*
X147803884Y-138984723D02*
X147708646Y-138889485D01*
X147708646Y-138889485D02*
X147613408Y-138841866D01*
X149327694Y-138413295D02*
X149803884Y-138413295D01*
X149232456Y-138127580D02*
X149565789Y-139127580D01*
X149565789Y-139127580D02*
X149899122Y-138127580D01*
X150184837Y-139032342D02*
X150232456Y-139079961D01*
X150232456Y-139079961D02*
X150327694Y-139127580D01*
X150327694Y-139127580D02*
X150565789Y-139127580D01*
X150565789Y-139127580D02*
X150661027Y-139079961D01*
X150661027Y-139079961D02*
X150708646Y-139032342D01*
X150708646Y-139032342D02*
X150756265Y-138937104D01*
X150756265Y-138937104D02*
X150756265Y-138841866D01*
X150756265Y-138841866D02*
X150708646Y-138699009D01*
X150708646Y-138699009D02*
X150137218Y-138127580D01*
X150137218Y-138127580D02*
X150756265Y-138127580D01*
X152280075Y-138651390D02*
X152422932Y-138603771D01*
X152422932Y-138603771D02*
X152470551Y-138556152D01*
X152470551Y-138556152D02*
X152518170Y-138460914D01*
X152518170Y-138460914D02*
X152518170Y-138318057D01*
X152518170Y-138318057D02*
X152470551Y-138222819D01*
X152470551Y-138222819D02*
X152422932Y-138175200D01*
X152422932Y-138175200D02*
X152327694Y-138127580D01*
X152327694Y-138127580D02*
X151946742Y-138127580D01*
X151946742Y-138127580D02*
X151946742Y-139127580D01*
X151946742Y-139127580D02*
X152280075Y-139127580D01*
X152280075Y-139127580D02*
X152375313Y-139079961D01*
X152375313Y-139079961D02*
X152422932Y-139032342D01*
X152422932Y-139032342D02*
X152470551Y-138937104D01*
X152470551Y-138937104D02*
X152470551Y-138841866D01*
X152470551Y-138841866D02*
X152422932Y-138746628D01*
X152422932Y-138746628D02*
X152375313Y-138699009D01*
X152375313Y-138699009D02*
X152280075Y-138651390D01*
X152280075Y-138651390D02*
X151946742Y-138651390D01*
X153470551Y-138127580D02*
X152899123Y-138127580D01*
X153184837Y-138127580D02*
X153184837Y-139127580D01*
X153184837Y-139127580D02*
X153089599Y-138984723D01*
X153089599Y-138984723D02*
X152994361Y-138889485D01*
X152994361Y-138889485D02*
X152899123Y-138841866D01*
X154994361Y-138651390D02*
X155137218Y-138603771D01*
X155137218Y-138603771D02*
X155184837Y-138556152D01*
X155184837Y-138556152D02*
X155232456Y-138460914D01*
X155232456Y-138460914D02*
X155232456Y-138318057D01*
X155232456Y-138318057D02*
X155184837Y-138222819D01*
X155184837Y-138222819D02*
X155137218Y-138175200D01*
X155137218Y-138175200D02*
X155041980Y-138127580D01*
X155041980Y-138127580D02*
X154661028Y-138127580D01*
X154661028Y-138127580D02*
X154661028Y-139127580D01*
X154661028Y-139127580D02*
X154994361Y-139127580D01*
X154994361Y-139127580D02*
X155089599Y-139079961D01*
X155089599Y-139079961D02*
X155137218Y-139032342D01*
X155137218Y-139032342D02*
X155184837Y-138937104D01*
X155184837Y-138937104D02*
X155184837Y-138841866D01*
X155184837Y-138841866D02*
X155137218Y-138746628D01*
X155137218Y-138746628D02*
X155089599Y-138699009D01*
X155089599Y-138699009D02*
X154994361Y-138651390D01*
X154994361Y-138651390D02*
X154661028Y-138651390D01*
X155613409Y-139032342D02*
X155661028Y-139079961D01*
X155661028Y-139079961D02*
X155756266Y-139127580D01*
X155756266Y-139127580D02*
X155994361Y-139127580D01*
X155994361Y-139127580D02*
X156089599Y-139079961D01*
X156089599Y-139079961D02*
X156137218Y-139032342D01*
X156137218Y-139032342D02*
X156184837Y-138937104D01*
X156184837Y-138937104D02*
X156184837Y-138841866D01*
X156184837Y-138841866D02*
X156137218Y-138699009D01*
X156137218Y-138699009D02*
X155565790Y-138127580D01*
X155565790Y-138127580D02*
X156184837Y-138127580D01*
X116786904Y-103882919D02*
X116786904Y-104692442D01*
X116786904Y-104692442D02*
X116739285Y-104787680D01*
X116739285Y-104787680D02*
X116691666Y-104835300D01*
X116691666Y-104835300D02*
X116596428Y-104882919D01*
X116596428Y-104882919D02*
X116405952Y-104882919D01*
X116405952Y-104882919D02*
X116310714Y-104835300D01*
X116310714Y-104835300D02*
X116263095Y-104787680D01*
X116263095Y-104787680D02*
X116215476Y-104692442D01*
X116215476Y-104692442D02*
X116215476Y-103882919D01*
X115310714Y-104216252D02*
X115310714Y-104882919D01*
X115548809Y-103835300D02*
X115786904Y-104549585D01*
X115786904Y-104549585D02*
X115167857Y-104549585D01*
M02*
